<?xml version="1.0" standalone="no"?>
<!DOCTYPE svg PUBLIC "-//W3C//DTD SVG 20010904//EN"
 "http://www.w3.org/TR/2001/REC-SVG-20010904/DTD/svg10.dtd">
<svg version="1.0" xmlns="http://www.w3.org/2000/svg"
 width="640.000000pt" height="640.000000pt" viewBox="0 0 640.000000 640.000000"
 preserveAspectRatio="xMidYMid meet">
<metadata>
Created by potrace 1.14, written by Peter Selinger 2001-2017
</metadata>
<g transform="translate(0.000000,640.000000) scale(0.100000,-0.100000)"
fill="#000000" stroke="none">
<path d="M3173 6250 c-31 -13 -60 -63 -68 -118 -8 -54 -53 -147 -102 -212 -87
-115 -289 -298 -448 -405 -151 -101 -432 -223 -639 -276 -188 -49 -290 -60
-576 -66 -298 -6 -324 -10 -336 -60 -4 -15 -3 -43 3 -62 6 -20 24 -83 41 -141
42 -144 56 -258 49 -425 -7 -211 -50 -380 -143 -572 -101 -210 -288 -438 -464
-567 -97 -72 -120 -98 -120 -136 0 -39 24 -65 108 -122 220 -146 433 -432 535
-716 102 -283 104 -582 7 -901 -26 -81 -25 -104 2 -136 l23 -26 261 1 c283 0
414 -12 589 -54 309 -76 627 -237 850 -431 222 -194 313 -336 355 -558 15 -74
43 -107 92 -109 50 -2 85 24 96 69 46 199 71 261 146 365 208 290 620 544
1066 658 192 49 233 53 544 56 l300 3 24 25 c33 32 31 76 -7 203 -38 129 -51
224 -51 376 0 130 8 200 40 338 75 326 289 643 560 828 109 75 135 109 116
155 -7 17 -32 46 -57 64 -239 175 -408 373 -519 607 -95 200 -130 354 -137
602 -6 203 5 296 53 440 70 208 56 223 -214 223 -326 0 -582 36 -820 115 -294
98 -583 274 -800 487 -138 135 -208 239 -232 344 -20 85 -40 122 -73 133 -16
6 -30 11 -31 10 -1 0 -11 -4 -23 -9z m-109 -1286 c-52 -77 -201 -216 -299
-280 -217 -141 -440 -204 -728 -204 -108 0 -137 3 -157 17 -19 12 -220 193
-260 233 -18 18 -231 203 -249 217 -10 8 -13 15 -6 21 6 5 104 16 219 26 207
17 245 23 426 72 210 57 526 200 696 315 146 98 283 221 352 314 l37 50 3
-365 2 -364 -36 -52z m346 660 c58 -58 141 -134 185 -168 77 -61 218 -156 230
-156 3 0 24 -12 47 -26 62 -39 239 -116 374 -163 201 -69 415 -111 663 -131
69 -6 127 -12 129 -15 3 -3 -14 -22 -39 -43 -84 -71 -414 -365 -449 -400 -19
-19 -44 -38 -55 -42 -24 -9 -281 4 -375 19 -294 48 -592 223 -781 461 l-36 45
-6 363 c-3 199 -3 362 1 362 4 0 54 -48 112 -106z m-1875 -1090 c61 -55 132
-120 159 -145 l48 -44 -5 -165 c-4 -133 -10 -184 -30 -261 -64 -244 -212 -463
-400 -591 l-40 -28 -242 0 c-133 0 -244 3 -248 6 -3 3 33 52 80 108 219 258
343 505 405 806 19 93 29 288 28 534 0 5 30 -20 68 -55 37 -35 117 -109 177
-165z m3577 58 c-9 -442 156 -879 452 -1198 36 -40 66 -77 66 -83 0 -8 -73
-11 -243 -11 l-244 0 -49 32 c-70 46 -213 192 -263 268 -116 178 -160 329
-168 577 -5 143 -4 153 16 181 12 17 85 88 164 159 78 70 167 151 197 180 30
29 60 53 65 53 6 0 9 -57 7 -158z m-2010 -39 c4 -113 2 -154 -9 -175 -25 -50
-162 -157 -268 -209 -129 -62 -211 -82 -350 -83 l-111 -1 -39 34 c-22 18 -73
60 -112 93 -40 33 -71 64 -68 68 2 4 44 10 92 13 260 19 620 177 793 349 30
30 58 55 61 56 4 1 9 -64 11 -145z m260 96 c196 -187 590 -357 831 -359 46 0
58 -3 55 -14 -6 -28 -198 -174 -244 -185 -166 -42 -447 53 -616 208 -84 77
-87 85 -88 247 -1 161 -1 154 4 154 3 0 29 -23 58 -51z m-1232 -624 l75 -76
-1 -102 c-1 -58 -9 -131 -18 -167 -35 -137 -131 -290 -218 -347 -41 -27 -45
-28 -210 -31 -92 -2 -168 -1 -168 3 0 4 33 50 73 103 171 228 234 383 258 641
6 64 13 122 15 129 5 18 96 -54 194 -153z m2340 101 c0 -259 102 -524 287
-744 29 -35 53 -67 53 -73 0 -5 -65 -9 -157 -9 -196 0 -217 8 -304 117 -104
131 -162 281 -162 424 -1 83 18 128 71 170 15 11 64 56 109 100 45 43 87 79
93 79 6 0 10 -27 10 -64z m-1370 -341 c0 -179 -3 -325 -7 -325 -8 0 -41 28
-274 225 -53 44 -127 105 -167 135 -74 58 -88 80 -48 80 13 0 66 11 118 24
103 26 222 82 308 144 30 22 58 41 63 41 4 1 7 -145 7 -324z m267 283 c105
-71 298 -151 394 -164 27 -4 49 -10 49 -14 0 -5 -19 -23 -42 -41 -24 -18 -81
-68 -128 -110 -119 -107 -323 -279 -332 -279 -5 0 -8 147 -8 326 0 257 3 324
13 318 6 -4 31 -20 54 -36z m-744 -470 c117 -99 236 -204 265 -232 l53 -51
-43 -7 c-62 -10 -668 -10 -668 0 0 5 20 44 45 88 60 104 103 219 118 310 6 41
13 74 15 74 2 0 99 -82 215 -182z m1377 137 c0 -72 70 -246 150 -371 16 -26
30 -52 30 -56 0 -12 -708 -10 -715 2 -8 13 12 31 235 223 96 83 199 172 229
199 30 26 58 45 63 42 4 -3 8 -20 8 -39z m-2685 -657 c39 -21 154 -137 211
-213 61 -81 147 -260 179 -370 28 -97 53 -294 42 -336 -4 -14 -21 -42 -39 -61
-37 -39 -398 -371 -413 -380 -7 -4 -10 59 -11 180 0 208 -14 311 -65 477 -70
228 -233 503 -398 673 -23 23 -40 46 -37 50 2 4 116 5 253 2 206 -4 253 -8
278 -22z m601 9 c17 -8 66 -54 110 -100 115 -121 154 -209 170 -384 l6 -73
-44 -41 c-71 -68 -205 -179 -215 -179 -5 0 -15 39 -22 88 -36 236 -120 426
-270 612 -33 41 -61 81 -61 89 0 21 283 11 326 -12z m974 14 c0 -12 -475 -401
-489 -401 -5 0 -19 30 -31 68 -24 72 -91 205 -140 278 -16 25 -30 47 -30 49 0
6 159 10 448 13 144 1 242 -2 242 -7z m1315 -3 c3 -3 -15 -35 -41 -70 -58 -78
-119 -202 -135 -274 -7 -30 -15 -54 -18 -54 -9 1 -495 391 -499 401 -4 9 683
7 693 -3z m1410 0 c4 -4 -21 -36 -55 -72 -143 -148 -270 -352 -345 -551 -70
-185 -110 -430 -103 -632 2 -68 1 -123 -2 -123 -7 0 -29 20 -254 223 l-196
179 0 103 c0 279 115 552 323 763 67 69 115 98 180 112 49 10 442 8 452 -2z
m-815 -8 c0 -5 -15 -27 -33 -47 -141 -159 -261 -421 -288 -628 -6 -49 -13 -96
-15 -103 -5 -16 -52 22 -183 146 l-84 79 8 68 c9 91 29 155 76 246 43 82 120
175 183 220 39 29 40 29 188 29 92 0 148 -4 148 -10z m-1704 -647 c-2 -3 -22
7 -43 21 -69 46 -256 124 -341 142 -45 9 -82 20 -81 23 1 6 362 307 426 354
l38 28 3 -282 c1 -155 0 -284 -2 -286z m257 535 c55 -38 417 -340 417 -348 0
-3 -30 -12 -67 -19 -69 -13 -223 -75 -323 -130 -30 -17 -61 -31 -67 -31 -10 0
-13 62 -13 275 0 193 3 275 11 275 6 0 25 -10 42 -22z m652 -569 c45 -23 223
-158 224 -170 1 -3 -50 -11 -111 -18 -266 -31 -510 -136 -740 -320 l-78 -61 0
158 0 159 30 41 c17 23 49 56 73 73 60 45 189 104 282 130 163 44 246 47 320
8z m-1306 1 c144 -37 273 -110 355 -201 l46 -51 0 -159 c0 -87 -2 -159 -5
-159 -3 0 -47 35 -99 78 -201 166 -415 259 -681 297 -60 9 -116 18 -123 20
-21 7 117 132 182 165 53 27 68 30 153 30 61 0 122 -7 172 -20z m-334 -402
c166 -34 309 -93 449 -187 85 -56 214 -181 255 -246 l31 -49 0 -388 0 -387
-93 92 c-200 198 -366 318 -592 427 -283 137 -615 222 -920 237 l-129 6 74 70
c225 208 436 395 471 416 75 44 261 48 454 9z m2111 1 c45 -30 283 -236 449
-390 27 -26 64 -58 80 -72 17 -14 27 -28 24 -31 -4 -4 -73 -11 -155 -17 -501
-34 -940 -200 -1314 -499 -57 -46 -139 -119 -182 -163 l-78 -78 0 381 c0 266
3 388 11 403 21 39 137 163 206 220 150 122 322 207 498 246 119 26 148 29
296 27 118 -1 128 -3 165 -27z"/>
</g>
</svg>
